<svg xmlns="http://www.w3.org/2000/svg" viewBox="0 0 240 240" role="img" aria-labelledby="title desc">
  <title id="title">Pet blog launch art</title>
  <desc id="desc">A cheerful pet-themed illustration with a paw badge, toy ball, and cozy pet bed.</desc>
  <defs>
    <linearGradient id="bg" x1="0" y1="0" x2="1" y2="1">
      <stop offset="0%" stop-color="#fffdf9"/>
      <stop offset="45%" stop-color="#fff1d6"/>
      <stop offset="100%" stop-color="#f7ebe6"/>
    </linearGradient>
    <linearGradient id="card" x1="0" y1="0" x2="1" y2="1">
      <stop offset="0%" stop-color="#ffffff"/>
      <stop offset="100%" stop-color="#fff7e8"/>
    </linearGradient>
  </defs>
  <rect width="240" height="240" rx="34" fill="url(#bg)"/>
  <circle cx="52" cy="54" r="20" fill="#dceeed"/>
  <circle cx="190" cy="52" r="26" fill="#e8f3f6"/>
  <rect x="22" y="144" width="196" height="72" rx="24" fill="url(#card)" stroke="#d8ddd6"/>
  <ellipse cx="118" cy="164" rx="62" ry="22" fill="#f4d8ac"/>
  <ellipse cx="118" cy="166" rx="48" ry="14" fill="#fff7e8"/>
  <circle cx="92" cy="84" r="26" fill="#096772"/>
  <circle cx="148" cy="84" r="26" fill="#ef9b13"/>
  <circle cx="120" cy="110" r="28" fill="#17343a"/>
  <circle cx="120" cy="110" r="18" fill="#fffdf9"/>
  <circle cx="84" cy="64" r="12" fill="#096772"/>
  <circle cx="100" cy="50" r="12" fill="#096772"/>
  <circle cx="140" cy="50" r="12" fill="#ef9b13"/>
  <circle cx="156" cy="64" r="12" fill="#ef9b13"/>
  <circle cx="110" cy="106" r="4" fill="#8c5b53"/>
  <circle cx="130" cy="106" r="4" fill="#8c5b53"/>
  <path d="M112 118c6 6 10 6 16 0" fill="none" stroke="#8c5b53" stroke-width="4" stroke-linecap="round"/>
  <circle cx="186" cy="122" r="18" fill="#fffdf9" stroke="#c4d1cb"/>
  <path d="M186 106a16 16 0 0 1 0 32a16 16 0 0 1 0-32z" fill="none" stroke="#096772" stroke-width="4" stroke-dasharray="5 6"/>
  <circle cx="186" cy="122" r="5" fill="#ef9b13"/>
  <text x="120" y="204" text-anchor="middle" font-family="'Source Sans 3', Arial, sans-serif" font-size="18" font-weight="700" fill="#17343a">Pet Gear Fun</text>
</svg>